<?xml version="1.0" encoding="UTF-8"?>
<svg id="Layer_1" data-name="Layer 1" xmlns="http://www.w3.org/2000/svg" viewBox="0 0 240 50">
  <defs>
    <style>
      .cls-1 {
        fill: #fff;
      }

      .cls-2 {
        fill: #04243d;
      }

      .cls-3 {
        fill: #262262;
      }
    </style>
  </defs>
  <rect class="cls-3" x="50.05" y="25.11" width="12.06" height="9.43"/>
  <rect class="cls-2" width="240" height="50"/>
  <rect class="cls-1" x="2.67" y="2.61" width="113.13" height="45"/>
  <g>
    <path class="cls-2" d="m20.6,38.63h-8.53V10.99h8.91c2.68,0,4.97.55,6.88,1.65,1.91,1.1,3.37,2.68,4.39,4.74s1.53,4.51,1.53,7.38-.51,5.36-1.54,7.43c-1.03,2.07-2.52,3.67-4.48,4.78-1.96,1.11-4.35,1.67-7.15,1.67Zm-5.18-2.97h4.97c2.29,0,4.18-.44,5.68-1.32,1.5-.88,2.62-2.14,3.36-3.76.74-1.63,1.11-3.57,1.11-5.82s-.36-4.15-1.09-5.77c-.73-1.62-1.82-2.86-3.27-3.72s-3.25-1.3-5.41-1.3h-5.34v21.7Z"/>
    <path class="cls-2" d="m42.35,39.12c-1.31,0-2.51-.25-3.58-.75-1.07-.5-1.92-1.22-2.55-2.17s-.94-2.1-.94-3.45c0-1.19.23-2.15.7-2.89.47-.74,1.09-1.32,1.88-1.75.78-.42,1.65-.74,2.6-.95.95-.21,1.91-.38,2.87-.51,1.26-.16,2.28-.29,3.07-.37.79-.08,1.36-.23,1.73-.44.36-.21.55-.57.55-1.08v-.11c0-1.33-.36-2.37-1.09-3.1-.72-.74-1.82-1.11-3.29-1.11s-2.71.33-3.58,1c-.86.67-1.47,1.38-1.82,2.13l-3.02-1.08c.54-1.26,1.26-2.24,2.17-2.95s1.89-1.2,2.97-1.48,2.13-.42,3.18-.42c.67,0,1.43.08,2.3.24s1.71.48,2.52.96c.81.49,1.49,1.22,2.03,2.2.54.98.81,2.29.81,3.94v13.66h-3.18v-2.81h-.16c-.22.45-.58.93-1.08,1.44s-1.17.95-2.01,1.31c-.84.36-1.86.54-3.06.54Zm.49-2.86c1.26,0,2.32-.25,3.19-.74s1.53-1.13,1.97-1.92c.45-.78.67-1.61.67-2.47v-2.92c-.13.16-.43.31-.88.44-.46.13-.98.24-1.57.34-.59.09-1.16.18-1.71.24-.55.07-1,.12-1.34.17-.83.11-1.6.28-2.31.52-.71.24-1.29.59-1.73,1.07s-.65,1.11-.65,1.92c0,1.11.41,1.94,1.24,2.5.82.56,1.87.84,3.14.84Z"/>
    <path class="cls-2" d="m58.17,26.16v12.47h-3.19v-20.73h3.08v3.24h.27c.49-1.05,1.22-1.9,2.21-2.54.99-.64,2.27-.96,3.83-.96,1.4,0,2.63.29,3.68.86s1.87,1.44,2.46,2.59c.58,1.16.88,2.62.88,4.38v13.17h-3.18v-12.95c0-1.63-.42-2.9-1.27-3.81s-2.01-1.37-3.48-1.37c-1.02,0-1.92.22-2.72.66-.8.44-1.42,1.08-1.88,1.93-.46.85-.69,1.87-.69,3.08Z"/>
    <path class="cls-2" d="m76.14,14.45c-.62,0-1.15-.21-1.6-.63s-.67-.93-.67-1.52.22-1.1.67-1.53c.45-.42.98-.63,1.6-.63s1.15.21,1.6.63c.45.42.67.93.67,1.53s-.22,1.1-.67,1.52-.98.63-1.6.63Zm-1.62,24.18v-20.73h3.18v20.73h-3.18Z"/>
    <path class="cls-2" d="m89.53,39.06c-2,0-3.72-.44-5.16-1.33-1.44-.89-2.55-2.13-3.33-3.72-.78-1.6-1.17-3.46-1.17-5.58s.39-4,1.17-5.62,1.87-2.89,3.27-3.81c1.4-.91,3.03-1.37,4.91-1.37,1.08,0,2.15.18,3.2.54,1.05.36,2.01.94,2.87,1.75.86.81,1.55,1.87,2.06,3.19s.77,2.95.77,4.88v1.35h-15.98v-2.75h12.74c0-1.17-.23-2.21-.69-3.13-.46-.92-1.12-1.64-1.97-2.17-.85-.53-1.85-.8-3-.8-1.27,0-2.36.31-3.29.94s-1.63,1.44-2.12,2.44c-.5,1-.74,2.07-.74,3.21v1.83c0,1.57.27,2.89.82,3.97.54,1.08,1.3,1.91,2.27,2.47s2.1.84,3.39.84c.84,0,1.59-.12,2.27-.36.68-.24,1.27-.6,1.76-1.08s.88-1.08,1.15-1.8l3.08.86c-.32,1.04-.87,1.96-1.63,2.75s-1.71,1.4-2.83,1.83c-1.12.44-2.39.65-3.79.65Z"/>
    <path class="cls-2" d="m103.46,10.99v27.64h-3.19V10.99h3.19Z"/>
  </g>
  <g>
    <path class="cls-1" d="m142.79,17.91c-.16-1.37-.82-2.43-1.97-3.18-1.15-.76-2.56-1.13-4.24-1.13-1.22,0-2.29.2-3.21.59-.91.4-1.62.94-2.13,1.63-.51.69-.76,1.48-.76,2.36,0,.74.18,1.37.53,1.9.35.53.81.96,1.37,1.31.56.35,1.14.63,1.75.85.61.22,1.17.4,1.69.53l2.81.76c.72.19,1.52.45,2.41.78.89.33,1.74.79,2.55,1.36s1.49,1.3,2.02,2.19c.53.89.8,1.98.8,3.28,0,1.49-.39,2.84-1.17,4.05-.78,1.21-1.91,2.16-3.4,2.87-1.49.71-3.29,1.07-5.42,1.07-1.98,0-3.69-.32-5.13-.96s-2.58-1.53-3.4-2.67c-.82-1.14-1.29-2.47-1.4-3.98h3.45c.09,1.04.44,1.91,1.06,2.58.62.68,1.4,1.18,2.35,1.51s1.97.49,3.07.49c1.28,0,2.42-.21,3.44-.63,1.02-.42,1.82-1,2.42-1.75.59-.75.89-1.63.89-2.64,0-.92-.26-1.66-.77-2.24-.51-.58-1.19-1.04-2.02-1.4-.84-.36-1.74-.67-2.71-.94l-3.4-.97c-2.16-.62-3.87-1.51-5.13-2.66-1.26-1.15-1.89-2.66-1.89-4.52,0-1.55.42-2.9,1.26-4.05.84-1.16,1.97-2.06,3.4-2.7,1.43-.64,3.02-.96,4.78-.96s3.36.32,4.75.95c1.39.63,2.49,1.5,3.3,2.6.81,1.1,1.24,2.34,1.29,3.74h-3.24Z"/>
    <path class="cls-1" d="m157.2,39.06c-1.94,0-3.62-.46-5.02-1.38-1.4-.92-2.48-2.18-3.24-3.79s-1.13-3.45-1.13-5.52.39-3.96,1.17-5.58c.78-1.61,1.87-2.88,3.27-3.79,1.4-.91,3.03-1.37,4.91-1.37,1.46,0,2.77.27,3.94.81,1.17.54,2.13,1.3,2.87,2.27.75.97,1.21,2.11,1.39,3.4h-3.18c-.24-.95-.78-1.78-1.61-2.52-.83-.73-1.95-1.1-3.35-1.1-1.24,0-2.33.32-3.26.96-.93.64-1.66,1.55-2.17,2.71s-.78,2.53-.78,4.1.25,3,.76,4.18c.51,1.19,1.23,2.11,2.16,2.77.93.66,2.03.99,3.29.99.83,0,1.58-.14,2.25-.43.67-.29,1.25-.7,1.71-1.24.47-.54.8-1.19,1-1.94h3.18c-.18,1.22-.62,2.32-1.33,3.3-.71.98-1.64,1.75-2.79,2.32-1.16.57-2.5.86-4.03.86Z"/>
    <path class="cls-1" d="m170.48,26.16v12.47h-3.19V11h3.19v10.15h.27c.49-1.07,1.22-1.92,2.19-2.56.98-.63,2.28-.95,3.91-.95,1.41,0,2.65.28,3.71.84,1.06.56,1.89,1.42,2.48,2.58.59,1.16.88,2.62.88,4.41v13.17h-3.18v-12.95c0-1.65-.42-2.92-1.27-3.83-.85-.9-2.03-1.36-3.53-1.36-1.04,0-1.98.22-2.8.66-.82.44-1.47,1.08-1.94,1.93-.47.85-.71,1.87-.71,3.08Z"/>
    <path class="cls-1" d="m195.47,39.06c-1.87,0-3.51-.45-4.92-1.34-1.41-.89-2.51-2.14-3.29-3.74-.79-1.6-1.18-3.47-1.18-5.61s.39-4.04,1.18-5.65,1.88-2.86,3.29-3.75c1.41-.89,3.05-1.34,4.92-1.34s3.51.45,4.92,1.34,2.51,2.14,3.29,3.75,1.18,3.5,1.18,5.65-.39,4.01-1.18,5.61c-.79,1.6-1.88,2.85-3.29,3.74s-3.05,1.34-4.92,1.34Zm0-2.86c1.42,0,2.59-.36,3.51-1.09.92-.73,1.6-1.69,2.04-2.87.44-1.19.66-2.47.66-3.86s-.22-2.68-.66-3.87c-.44-1.2-1.12-2.16-2.04-2.9-.92-.74-2.09-1.11-3.51-1.11s-2.59.37-3.51,1.11c-.92.74-1.6,1.71-2.04,2.9-.44,1.2-.66,2.49-.66,3.87s.22,2.67.66,3.86,1.12,2.15,2.04,2.87c.92.73,2.09,1.09,3.51,1.09Z"/>
    <path class="cls-1" d="m216.03,17.91v2.7h-10.74v-2.7h10.74Zm-7.61-4.97h3.18v19.76c0,.9.13,1.57.4,2.02s.61.74,1.03.89c.42.15.86.22,1.33.22.35,0,.64-.02.86-.06.22-.04.4-.07.54-.1l.65,2.86c-.22.08-.52.16-.9.25s-.88.13-1.47.13c-.9,0-1.78-.19-2.64-.58-.86-.39-1.57-.98-2.13-1.77s-.84-1.79-.84-3V12.94Z"/>
    <path class="cls-1" d="m227.15,17.91v2.7h-10.74v-2.7h10.74Zm-7.61-4.97h3.18v19.76c0,.9.13,1.57.4,2.02s.61.74,1.03.89c.42.15.86.22,1.33.22.35,0,.64-.02.86-.06.22-.04.4-.07.54-.1l.65,2.86c-.22.08-.52.16-.9.25s-.88.13-1.47.13c-.9,0-1.78-.19-2.64-.58-.86-.39-1.57-.98-2.13-1.77s-.84-1.79-.84-3V12.94Z"/>
  </g>
</svg>