<?xml version="1.0" encoding="UTF-8"?>
<svg id="Layer_1" data-name="Layer 1" xmlns="http://www.w3.org/2000/svg" viewBox="0 0 50 50">
  <defs>
    <style>
      .cls-1 {
        fill: #fff;
      }
    </style>
  </defs>
  <path class="cls-1" d="m12.45,38.91H3.92V11.27h8.91c2.68,0,4.97.55,6.88,1.65,1.91,1.1,3.37,2.68,4.39,4.74,1.02,2.06,1.53,4.51,1.53,7.38s-.51,5.36-1.54,7.43c-1.03,2.07-2.52,3.67-4.48,4.78-1.96,1.11-4.35,1.67-7.15,1.67Zm-5.18-2.97h4.97c2.29,0,4.18-.44,5.68-1.32,1.5-.88,2.62-2.14,3.36-3.77s1.11-3.57,1.11-5.82-.36-4.15-1.09-5.77c-.73-1.62-1.82-2.86-3.27-3.72-1.45-.87-3.25-1.3-5.41-1.3h-5.34v21.7Z"/>
  <path class="cls-1" d="m43.65,18.18c-.16-1.37-.82-2.43-1.97-3.18s-2.56-1.13-4.24-1.13c-1.22,0-2.29.2-3.21.59-.91.4-1.62.94-2.13,1.63-.51.69-.76,1.48-.76,2.36,0,.74.18,1.37.53,1.89.36.53.81.96,1.37,1.31.56.35,1.14.63,1.75.85.61.22,1.17.4,1.69.53l2.81.76c.72.19,1.52.45,2.41.78.89.33,1.74.79,2.55,1.36.81.57,1.49,1.3,2.02,2.19.53.89.8,1.98.8,3.28,0,1.49-.39,2.84-1.17,4.05s-1.91,2.16-3.4,2.88c-1.49.71-3.29,1.06-5.42,1.06-1.98,0-3.69-.32-5.13-.96-1.44-.64-2.58-1.53-3.4-2.67s-1.29-2.47-1.4-3.98h3.45c.09,1.04.44,1.9,1.06,2.58s1.4,1.18,2.35,1.51,1.97.49,3.07.49c1.28,0,2.42-.21,3.44-.63,1.02-.42,1.82-1,2.42-1.76.59-.75.89-1.63.89-2.64,0-.92-.26-1.66-.77-2.24-.51-.58-1.19-1.04-2.02-1.4s-1.74-.67-2.71-.94l-3.4-.97c-2.16-.62-3.87-1.51-5.13-2.66s-1.89-2.66-1.89-4.52c0-1.55.42-2.9,1.26-4.05.84-1.16,1.97-2.05,3.4-2.7,1.43-.64,3.02-.96,4.78-.96s3.37.32,4.75.95c1.39.63,2.49,1.5,3.3,2.6s1.24,2.34,1.29,3.74h-3.24Z"/>
</svg>